Coordinates
version=1
nRows=6
nColumns=63
inDegrees=yes

Units are S.I. units (second, meters, Newtons, ...)
If the header above contains a line with 'inDegrees', this indicates whether rotational values are in degrees (yes) or radians (no).

endheader
time	pelvis_tilt	pelvis_list	pelvis_rotation	pelvis_tx	pelvis_ty	pelvis_tz	hip_flexion_r	hip_adduction_r	hip_rotation_r	knee_angle_r	knee_angle_r_beta	ankle_angle_r	subtalar_angle_r	mtp_angle_r	hip_flexion_l	hip_adduction_l	hip_rotation_l	knee_angle_l	knee_angle_l_beta	ankle_angle_l	subtalar_angle_l	mtp_angle_l	L5_S1_Flex_Ext	L5_S1_Lat_Bending	L5_S1_axial_rotation	L4_L5_Flex_Ext	L4_L5_Lat_Bending	L4_L5_axial_rotation	L3_L4_Flex_Ext	L3_L4_Lat_Bending	L3_L4_axial_rotation	L2_L3_Flex_Ext	L2_L3_Lat_Bending	L2_L3_axial_rotation	L1_L2_Flex_Ext	L1_L2_Lat_Bending	L1_L2_axial_rotation	L1_T12_Flex_Ext	L1_T12_Lat_Bending	L1_T12_axial_rotation	Abs_r3	Abs_r2	Abs_r1	Abs_t1	Abs_t2	neck_flexion	neck_bending	neck_rotation	arm_flex_r	arm_add_r	arm_rot_r	elbow_flex_r	pro_sup_r	wrist_flex_r	wrist_dev_r	arm_flex_l	arm_add_l	arm_rot_l	elbow_flex_l	pro_sup_l	wrist_flex_l	wrist_dev_l
      0.00000000	      2.82176476	     -2.85274436	    121.80636964	      0.30532040	      0.58060764	      0.95187600	      8.53100046	     -3.95609369	    -18.39183682	     19.49982861	      0.34033621	     33.73516718	      5.35224611	      0.00000000	      7.69383080	      2.84027376	      2.38310829	     14.15315256	      0.24701911	     28.93294904	      5.30845652	      0.00000000	      0.14435087	      0.06115829	     -1.40545089	      0.26807401	      0.08134052	     -1.49329157	      0.23715405	      0.14870025	     -1.49329157	      0.16497861	      0.14870025	     -1.22976953	      0.13404422	      0.12471398	     -1.14192885	      0.08248209	      0.09473418	     -1.05408817	      1.03108386	      0.69183475	     -7.81669621	      0.00000000	      0.00000000	     14.40172852	      1.68899227	      1.32973309	     14.31031776	    -10.47317965	     43.17335215	     49.97714567	     79.05317906	     11.90362148	     31.73032546	     22.85703547	     -7.20489581	     58.79944621	     48.54412296	     88.36101226	     19.80011808	     32.43381714
      0.01666667	      2.56457942	     -2.63129390	    121.84498970	      0.30264416	      0.58105688	      0.94707367	      6.98827030	     -3.98817578	    -19.40707524	     18.53541932	      0.32350410	     33.17194520	      5.70001240	      0.00000000	      6.78985411	      2.99404053	      2.69809012	     13.53337391	      0.23620193	     28.88187277	      4.90513997	      0.00000000	      0.15386499	      0.07363896	     -1.58763017	      0.28574267	      0.09793982	     -1.68685705	      0.25278479	      0.17904577	     -1.68685705	      0.17585229	      0.17904577	     -1.38917640	      0.14287903	      0.15016457	     -1.28994951	      0.08791845	      0.11406675	     -1.19072263	      1.09904221	      0.83301863	     -8.82992271	      0.00000000	      0.00000000	     14.12996969	      1.41727635	      3.11571012	     14.02379594	     -9.84195816	     42.65980578	     48.90331364	     75.64508536	     12.05142254	     31.18056958	     20.34704313	     -7.55534066	     54.09930287	     49.55823412	     88.03588586	     16.18630185	     32.90609635
      0.03333333	      2.31492375	     -2.47676632	    121.96940976	      0.30057774	      0.58152085	      0.94322527	      5.76091197	     -4.07273545	    -20.45145846	     17.70140762	      0.30894785	     32.89429016	      6.47449611	      0.00000000	      6.04733399	      3.18092482	      3.16996385	     12.98747494	      0.22667420	     28.70319271	      4.42834441	      0.00000000	      0.16218688	      0.06658947	     -1.74628881	      0.30119726	      0.08856399	     -1.85543186	      0.26645683	      0.16190564	     -1.85543186	      0.18536339	      0.16190564	     -1.52800271	      0.15060674	      0.13578925	     -1.41885966	      0.09267359	      0.10314709	     -1.30971661	      1.15848469	      0.75327340	     -9.71233449	      0.00000000	      0.00000000	     13.77887148	      1.29730755	      4.20080749	     13.87142740	     -9.42846084	     43.04247950	     48.04134215	     72.69601902	     11.50910193	     30.75313399	     18.70685146	     -7.79639856	     51.53664718	     50.09175100	     87.63856913	     14.35521363	     33.13899635
      0.05000000	      2.11364212	     -2.39014372	    121.99256803	      0.29938688	      0.58189696	      0.94025825	      4.89379353	     -4.05388138	    -20.63477121	     16.94416176	      0.29573141	     32.75808926	      6.67119700	      0.00000000	      5.59234876	      3.29992359	      3.19248712	     12.74458222	      0.22243492	     28.64584948	      4.37524377	      0.00000000	      0.16889267	      0.04792466	     -1.80393496	      0.31365059	      0.06373979	     -1.91668090	      0.27747377	      0.11652401	     -1.91668090	      0.19302744	      0.11652401	     -1.57844309	      0.15683374	      0.09772796	     -1.46569716	      0.09650527	      0.07423529	     -1.35295122	      1.20638348	      0.54213331	    -10.03294509	      0.00000000	      0.00000000	     13.43819261	      1.11258153	      4.43575967	     13.43370859	     -9.05799503	     42.74727059	     47.48086855	     72.24794851	     11.19110249	     30.32589797	     18.20131108	     -8.01506560	     51.46168000	     50.10744021	     87.40726117	     14.38852687	     33.15018691
      0.06666667	      1.93971714	     -2.32623481	    122.20796305	      0.29845274	      0.58236159	      0.93799446	      4.19805966	     -4.04046272	    -20.88745191	     16.26310019	      0.28384464	     32.82154559	      7.09048439	      0.00000000	      5.16518725	      3.40863187	      3.34570329	     12.40432896	      0.21649638	     28.50262130	      4.43200731	      0.00000000	      0.17538126	      0.02290759	     -1.89733908	      0.32570053	      0.03046710	     -2.01592277	      0.28813387	      0.05569753	     -2.01592277	      0.20044324	      0.05569753	     -1.66017170	      0.16285904	      0.04671317	     -1.54158800	      0.10021285	      0.03548386	     -1.42300431	      1.25273079	      0.25913529	    -10.55243077	      0.00000000	      0.00000000	     13.03518941	      1.19481391	      4.58823302	     13.09735183	     -8.68077374	     42.83089376	     46.81724580	     71.93890871	     10.68017787	     30.06894823	     17.89484310	     -8.31434096	     51.94826923	     50.09905893	     87.23813711	     14.80518479	     33.10605149
      0.08333333	      1.69213957	     -2.29000697	    122.66845185	      0.29783543	      0.58283112	      0.93649301	      3.60738517	     -4.15541615	    -21.56248814	     15.71822269	      0.27433474	     33.12180167	      7.79515237	      0.00000000	      4.80504479	      3.59603353	      3.62550965	     12.14832604	      0.21202829	     28.29103179	      4.58564868	      0.00000000	      0.17059573	     -0.02181545	     -2.01833715	      0.31681333	     -0.02901454	     -2.14448322	      0.28027173	     -0.05304208	     -2.14448322	      0.19497386	     -0.05304208	     -1.76604500	      0.15841520	     -0.04448606	     -1.63989893	      0.09747840	     -0.03379213	     -1.51375286	      1.21854825	     -0.24678069	    -11.22538571	      0.00000000	      0.00000000	     12.64701032	      1.54246459	      4.55856083	     12.86534777	     -8.32316835	     43.26947698	     46.22049820	     71.56167289	      9.63160456	     29.88541974	     18.04808400	     -8.76355065	     53.36876304	     50.03215326	     87.26620453	     15.90238397	     32.78649730
